#!OML:ASF H:\Punching\Project 1\Capture day 1\Session 1\female.ASF
:FULLY-SPECIFIED
:DEGREES
2854
root 0.578409 14.3671 1.10115 16.4443 12.9224 5.62046
lowerback -2.10931 -3.63511 -1.72205
upperback -7.22616 -4.9436 -0.982885
thorax -6.27067 -2.39125 0.100379
lowerneck -16.1707 2.30597 4.594
upperneck 33.8782 3.44253 -4.03467
head 14.5284 1.53067 -1.87034
rclavicle 2.41795e-014 3.46879e-014
rhumerus 20.8736 19.1924 -59.2662
rradius 131.281
rwrist -18.5246
rhand -31.1918 11.8013
rfingers 7.12502
rthumb -4.46835 -18.1316
lclavicle 2.41795e-014 3.46879e-014
lhumerus 8.18364 -25.5505 68.9703
lradius 138.321
lwrist 2.48966
lhand -24.5007 1.91583
lfingers 7.12502
lthumb 1.99375 31.8863
rfemur -57.1262 -12.4468 20.183
rtibia 63.5265
rfoot -20.6751 -19.3819
rtoes 8.56785
lfemur 0.263838 -9.64513 -9.75917
ltibia 30.8577
lfoot -16.4711 18.8016
ltoes -22.986
2855
root 0.625061 14.3543 1.022 16.8267 13.623 5.8788
lowerback -2.17282 -3.6915 -1.86037
upperback -7.29311 -5.01385 -0.868757
thorax -6.28323 -2.41365 0.294472
lowerneck -16.2762 2.10851 4.3922
upperneck 33.7127 3.18727 -3.98574
head 14.4553 1.40186 -1.85452
rclavicle 4.11152e-014 2.84262e-014
rhumerus 20.7603 18.9658 -59.1717
rradius 131.366
rwrist -18.5371
rhand -31.2098 11.8649
rfingers 7.12502
rthumb -4.48574 -18.0676
lclavicle 4.11152e-014 2.84262e-014
lhumerus 8.09067 -25.68 69.0686
lradius 138.313
lwrist 2.45547
lhand -24.4948 2.14672
lfingers 7.12502
lthumb 1.99952 32.1171
rfemur -57.7849 -12.9571 19.7477
rtibia 63.714
rfoot -20.3746 -19.5264
rtoes 8.63725
lfemur 0.232311 -9.9886 -9.97087
ltibia 29.8534
lfoot -17.7356 18.661
ltoes -23.922
2856
root 0.672404 14.3432 0.940929 17.1904 14.3073 6.10751
lowerback -2.22928 -3.73528 -1.97958
upperback -7.35083 -5.06642 -0.748282
thorax -6.29072 -2.42812 0.484095
lowerneck -16.3853 1.905 4.1875
upperneck 33.5534 2.91986 -3.92266
head 14.3861 1.26938 -1.83454
rclavicle -8.32333e-015 -2.98177e-015
rhumerus 20.6345 18.7306 -59.0824
rradius 131.451
rwrist -18.5667
rhand -31.2224 11.9231
rfingers 7.12502
rthumb -4.49785 -18.0092
lclavicle -8.32333e-015 -2.98177e-015
lhumerus 8.01818 -25.7998 69.1526
lradius 138.288
lwrist 2.47046
lhand -24.4544 2.33421
lfingers 7.12502
lthumb 2.03847 32.3042
rfemur -58.3963 -13.4702 19.3449
rtibia 63.8356
rfoot -20.0262 -19.6655
rtoes 8.68483
lfemur 0.114316 -10.2555 -10.1772
ltibia 29.0214
lfoot -18.9782 18.5843
ltoes -24.4759
2857
root 0.720746 14.3331 0.858279 17.5196 14.9649 6.29858
lowerback -2.274 -3.76151 -2.07305
upperback -7.39701 -5.0948 -0.622126
thorax -6.29433 -2.43187 0.66507
lowerneck -16.4819 1.69678 3.99002
upperneck 33.394 2.64398 -3.85791
head 14.315 1.13454 -1.81663
rclavicle 2.48791e-015 6.75868e-015
rhumerus 20.4968 18.4846 -58.9955
rradius 131.532
rwrist -18.6187
rhand -31.2129 11.9885
rfingers 7.12502
rthumb -4.48867 -17.9439
lclavicle 2.48791e-015 6.75868e-015
lhumerus 7.94703 -25.9175 69.2318
lradius 138.256
lwrist 2.51766
lhand -24.3809 2.46319
lfingers 7.12502
lthumb 2.10948 32.4325
rfemur -58.9439 -13.9796 18.9776
rtibia 63.8939
rfoot -19.6335 -19.7907
rtoes 8.69457
lfemur -0.0596446 -10.4883 -10.3849
ltibia 28.3208
lfoot -20.2152 18.5689
ltoes -24.7008
2858
root 0.7704 14.3238 0.773943 17.8042 15.5823 6.44966
lowerback -2.29849 -3.76801 -2.14192
upperback -7.43357 -5.09647 -0.490125
thorax -6.30118 -2.42347 0.838932
lowerneck -16.5632 1.48378 3.79262
upperneck 33.2446 2.36061 -3.78692
head 14.2459 0.997495 -1.79764
rclavicle -4.06173e-014 -4.49253e-014
rhumerus 20.3474 18.2391 -58.9126
rradius 131.611
rwrist -18.6837
rhand -31.1993 12.0074
rfingers 7.12502
rthumb -4.47561 -17.9253
lclavicle -4.06173e-014 -4.49253e-014
lhumerus 7.86995 -26.0234 69.3085
lradius 138.194
lwrist 2.56997
lhand -24.3093 2.43571
lfingers 7.12502
lthumb 2.17867 32.4043
rfemur -59.4219 -14.4766 18.6436
rtibia 63.8908
rfoot -19.197 -19.8971
rtoes 8.64242
lfemur -0.268396 -10.7071 -10.6043
ltibia 27.7207
lfoot -21.4406 18.6357
ltoes -24.6876
2859
root 0.821709 14.3151 0.688434 18.0377 16.1532 6.55444
lowerback -2.3055 -3.75121 -2.17614
upperback -7.46044 -5.06655 -0.354215
thorax -6.31107 -2.40118 0.997894
lowerneck -16.6056 1.27008 3.61344
upperneck 33.0883 2.07668 -3.72842
head 14.1667 0.861109 -1.78685
rclavicle 6.37819e-014 1.51076e-014
rhumerus 20.1732 17.9903 -58.8306
rradius 131.688
rwrist -18.7611
rhand -31.1758 12.0936
rfingers 7.12502
rthumb -4.45289 -17.8396
lclavicle 6.37819e-014 1.51076e-014
lhumerus 7.76435 -26.1396 69.3921
lradius 138.114
lwrist 2.5873
lhand -24.2686 2.29147
lfingers 7.12502
lthumb 2.21794 32.2597
rfemur -59.8268 -14.9589 18.3476
rtibia 63.829
rfoot -18.734 -19.9751
rtoes 8.56128
lfemur -0.490994 -10.9192 -10.8336
ltibia 27.2028
lfoot -22.67 18.7811
ltoes -24.4131
2860
root 0.874898 14.3071 0.602071 18.2137 16.6681 6.61087
lowerback -2.29715 -3.70912 -2.17337
upperback -7.47651 -5.00236 -0.216882
thorax -6.3223 -2.36394 1.13785
lowerneck -16.6167 1.0537 3.44405
upperneck 32.9421 1.78851 -3.67223
head 14.0862 0.724029 -1.77941
rclavicle -3.51787e-014 7.95139e-016
rhumerus 19.9896 17.7506 -58.7544
rradius 131.757
rwrist -18.8274
rhand -31.1548 12.1742
rfingers 7.12502
rthumb -4.43264 -17.7594
lclavicle -3.51787e-014 7.95139e-016
lhumerus 7.63119 -26.2717 69.4765
lradius 138.026
lwrist 2.55904
lhand -24.2507 2.09897
lfingers 7.12502
lthumb 2.23521 32.067
rfemur -60.1541 -15.4199 18.0882
rtibia 63.7075
rfoot -18.257 -20.0168
rtoes 8.48174
lfemur -0.707527 -11.1208 -11.0725
ltibia 26.7605
lfoot -23.8898 19.0084
ltoes -23.9156
2861
root 0.929735 14.3003 0.514754 18.3392 17.1242 6.62305
lowerback -2.27847 -3.6437 -2.1393
upperback -7.48199 -4.90655 -0.0802014
thorax -6.332 -2.31288 1.25944
lowerneck -16.6013 0.839163 3.29737
upperneck 32.8085 1.50057 -3.62502
head 14.007 0.588797 -1.77951
rclavicle 7.78801e-014 1.31198e-014
rhumerus 19.7812 17.522 -58.697
rradius 131.817
rwrist -18.8724
rhand -31.134 12.2676
rfingers 7.12502
rthumb -4.41249 -17.6664
lclavicle 7.78801e-014 1.31198e-014
lhumerus 7.48249 -26.4116 69.5512
lradius 137.942
lwrist 2.5112
lhand -24.228 1.88923
lfingers 7.12502
lthumb 2.25716 31.857
rfemur -60.4134 -15.8547 17.8622
rtibia 63.525
rfoot -17.7769 -20.0236
rtoes 8.42652
lfemur -0.919785 -11.3085 -11.3161
ltibia 26.391
lfoot -25.0428 19.3259
ltoes -23.3338
